<?xml version="1.0" standalone="no"?>
<!DOCTYPE svg PUBLIC "-//W3C//DTD SVG 20010904//EN"
 "http://www.w3.org/TR/2001/REC-SVG-20010904/DTD/svg10.dtd">
<svg version="1.0" xmlns="http://www.w3.org/2000/svg"
 width="512.000000pt" height="512.000000pt" viewBox="0 0 512.000000 512.000000"
 preserveAspectRatio="xMidYMid meet">

<g transform="translate(0.000000,512.000000) scale(0.100000,-0.100000)"
fill="#000000" stroke="none">
<path d="M1123 4761 c-66 -25 -127 -66 -180 -124 -128 -138 -149 -352 -51
-514 20 -33 303 -323 807 -826 679 -678 781 -777 819 -788 93 -27 50 -64 903
788 504 503 787 793 807 826 99 165 76 378 -56 520 -57 60 -98 87 -179 117
-53 19 -77 22 -161 18 -87 -3 -107 -8 -168 -37 -64 -31 -110 -74 -586 -550
l-518 -516 -517 516 c-478 477 -523 519 -588 550 -64 31 -78 34 -175 36 -83 2
-116 -1 -157 -16z"/>
<path d="M1170 2593 c-51 -10 -147 -61 -195 -105 -155 -141 -189 -370 -82
-550 14 -24 378 -395 809 -825 851 -849 801 -806 896 -788 33 6 126 95 824
792 527 527 795 802 812 832 104 193 57 425 -114 560 -134 106 -338 120 -490
33 -27 -15 -253 -233 -558 -536 l-512 -511 -508 507 c-279 278 -526 517 -549
532 -91 56 -223 79 -333 59z"/>
</g>
</svg>
