<?xml version="1.0" standalone="no"?>
<!DOCTYPE svg PUBLIC "-//W3C//DTD SVG 20010904//EN"
 "http://www.w3.org/TR/2001/REC-SVG-20010904/DTD/svg10.dtd">
<svg version="1.0" xmlns="http://www.w3.org/2000/svg"
 width="512.000000pt" height="512.000000pt" viewBox="0 0 512.000000 512.000000"
 preserveAspectRatio="xMidYMid meet">

<g transform="translate(0.000000,512.000000) scale(0.100000,-0.100000)"
fill="#000000" stroke="none">
<path d="M2495 4786 c-45 -21 -1589 -1572 -1613 -1621 -98 -197 -50 -421 118
-554 70 -56 148 -83 250 -88 94 -6 174 15 253 63 23 15 270 254 549 532 l508
506 522 -520 c574 -572 570 -568 716 -594 187 -34 381 71 466 250 29 61 31 72
31 180 0 201 67 119 -849 1039 -461 462 -804 799 -823 807 -40 17 -89 17 -128
0z"/>
<path d="M2495 2601 c-53 -25 -1602 -1576 -1638 -1641 -124 -221 -38 -501 188
-610 120 -58 250 -60 377 -4 58 25 104 68 601 563 l537 536 523 -525 c469
-472 529 -528 587 -557 224 -109 481 -22 591 202 33 67 34 74 34 185 0 113 -1
118 -37 191 -35 70 -76 113 -815 858 -550 554 -790 790 -818 802 -51 23 -80
23 -130 0z"/>
</g>
</svg>
